HIERARCHY
ROOT Hips
{
	OFFSET -3.958830 18.904000 13.208200
	CHANNELS 6 Xposition Yposition Zposition Zrotation Yrotation Xrotation 
	JOINT LHipJoint
	{
		OFFSET 0.000000 0.000000 0.000000
		CHANNELS 3 Zrotation Yrotation Xrotation
		JOINT LeftUpLeg
		{
			OFFSET 1.800000 -1.400000 0.085000
			CHANNELS 3 Zrotation Yrotation Xrotation
			JOINT LeftLeg
			{
				OFFSET 2.215000 -6.000000 0.000000
				CHANNELS 3 Zrotation Yrotation Xrotation
				JOINT LeftFoot
				{
					OFFSET 2.500000 -6.900000 0.000000
					CHANNELS 3 Zrotation Yrotation Xrotation
					JOINT LeftToeBase
					{
						OFFSET 0.200000 -0.500000 1.950000
						CHANNELS 3 Zrotation Yrotation Xrotation
						End Site
						{
							OFFSET 0.000000 0.000000 0.000000
						}
					}
				}
			}
		}
	}
	JOINT RHipJoint
	{
		OFFSET 0.000000 0.000000 0.000000
		CHANNELS 3 Zrotation Yrotation Xrotation
		JOINT RightUpLeg
		{
			OFFSET -1.800000 -1.400000 0.085000
			CHANNELS 3 Zrotation Yrotation Xrotation
			JOINT RightLeg
			{
				OFFSET -2.215000 -6.000000 0.000000
				CHANNELS 3 Zrotation Yrotation Xrotation
				JOINT RightFoot
				{
					OFFSET -2.500000 -6.900000 0.000000
					CHANNELS 3 Zrotation Yrotation Xrotation
					JOINT RightToeBase
					{
						OFFSET -0.200000 -0.500000 1.950000
						CHANNELS 3 Zrotation Yrotation Xrotation
						End Site
						{
							OFFSET 0.000000 0.000000 0.000000
						}
					}
				}
			}
		}
	}
	JOINT LowerBack
	{
		OFFSET 0.000000 0.000000 0.000000
		CHANNELS 3 Zrotation Yrotation Xrotation
		JOINT Spine
		{
			OFFSET -0.087000 1.940000 -0.288900
			CHANNELS 3 Zrotation Yrotation Xrotation
			JOINT Spine1
			{
				OFFSET 0.000000 1.950000 0.060000
				CHANNELS 3 Zrotation Yrotation Xrotation
				JOINT Neck
				{
					OFFSET 0.000000 0.000000 0.000000
					CHANNELS 3 Zrotation Yrotation Xrotation
					JOINT Neck1
					{
						OFFSET 0.000000 1.600000 0.340000
						CHANNELS 3 Zrotation Yrotation Xrotation
						JOINT Head
						{
							OFFSET 0.000000 1.667000 -0.240000
							CHANNELS 3 Zrotation Yrotation Xrotation
							End Site
							{
								OFFSET 0.000000 0.000000 0.000000
							}
						}
					}
				}
				JOINT LeftShoulder
				{
					OFFSET 0.000000 0.000000 0.000000
					CHANNELS 3 Zrotation Yrotation Xrotation
					JOINT LeftArm
					{
						OFFSET 2.700000 1.550000 -0.730000
						CHANNELS 3 Zrotation Yrotation Xrotation
						JOINT LeftForeArm
						{
							OFFSET 5.450000 0.000000 0.000000
							CHANNELS 3 Zrotation Yrotation Xrotation
							JOINT LeftHand
							{
								OFFSET 3.450000 0.000000 0.000000
								CHANNELS 3 Zrotation Yrotation Xrotation
								JOINT LeftHandIndex1
								{
									OFFSET 0.750000 0.000000 0.000000
									CHANNELS 3 Zrotation Yrotation Xrotation
									End Site
									{
										OFFSET 0.000000 0.000000 0.000000
									}
								}
							}
						}
					}
				}
				JOINT RightShoulder
				{
					OFFSET 0.000000 0.000000 0.000000
					CHANNELS 3 Zrotation Yrotation Xrotation
					JOINT RightArm
					{
						OFFSET -2.700000 1.550000 -0.730000
						CHANNELS 3 Zrotation Yrotation Xrotation
						JOINT RightForeArm
						{
							OFFSET -5.450000 0.000000 0.000000
							CHANNELS 3 Zrotation Yrotation Xrotation
							JOINT RightHand
							{
								OFFSET -3.450000 0.000000 0.000000
								CHANNELS 3 Zrotation Yrotation Xrotation
								JOINT RightHandIndex1
								{
									OFFSET -0.750000 0.000000 0.000000
									CHANNELS 3 Zrotation Yrotation Xrotation
									End Site
									{
										OFFSET 0.000000 0.000000 0.000000
									}
								}
							}
						}
					}
				}
			}
		}
	}
}
MOTION
Frames: 8
Frame Time: 0.016667
1.080670 18.980500 -0.327460 -1.824070 -12.576436 -12.878355 -14.859005 11.585128 5.034335 0.961089 -3.963029 -40.338888 -12.382262 23.123631 59.028849 1.471355 12.738746 0.234681 -0.104960 -0.242100 -0.194880 18.514359 -11.164108 2.465754 -11.271976 5.049550 -5.421894 13.431419 -10.207689 29.935382 -0.650049 -5.985471 2.411894 -0.213310 0.241830 -0.061310 -4.329755 0.898090 -8.701408 15.988991 5.861858 30.218065 -8.582408 12.388674 3.871203 2.076349 -7.164660 -14.328617 -16.055007 2.227107 46.073228 2.192160 -5.244570 -12.463220 -9.984087 -4.951217 5.686561 -34.276064 12.978963 -8.869486 -14.690830 -21.526204 0.469322 -3.499889 2.672880 0.603250 -0.123430 0.009290 0.046740 5.587625 17.511400 9.670015 37.425067 6.963160 -12.798708 22.296156 59.153490 7.919218 2.019262 -1.238646 -0.272350 0.417380 0.307080 -0.055230 
1.114320 19.058100 -0.390270 -1.044809 -12.393180 -15.006881 -14.854505 11.514308 5.065631 -0.549827 -4.325063 -40.314694 -12.397177 23.916023 61.076802 1.478305 13.279005 0.072149 -0.142320 -0.330760 -0.159400 18.517207 -11.231086 2.455187 -10.852273 5.232955 -3.638596 12.877842 -10.405764 31.466774 -0.709319 -6.220614 2.318445 -0.211230 0.250380 -0.084380 -4.339361 1.102397 -8.709599 15.229188 5.684031 33.397569 -9.367909 12.683709 3.882248 2.081047 -6.873936 -14.402656 -14.770527 2.667686 47.238441 2.219640 -4.423080 -14.308410 -9.555212 -5.328450 5.653121 -35.168137 13.317148 -10.149747 -14.871860 -27.078550 0.974185 -3.482873 2.622534 0.708690 -0.135830 0.004770 -0.005750 5.092876 18.300226 9.747306 39.767071 9.442174 -12.892819 23.505426 58.468968 7.907331 1.990514 -1.141078 -0.375520 0.487100 0.370990 -0.127550 
1.160980 19.104480 -0.471380 0.751494 -10.696965 -15.773798 -14.968160 11.376781 5.243855 -6.905500 -6.315296 -44.241704 -7.647719 22.691833 67.251532 1.562667 13.887197 -0.083889 -0.191200 -0.409570 -0.148420 18.449939 -11.166059 2.408267 -10.275304 5.065646 -2.191575 12.475709 -10.026021 30.488414 -0.677487 -6.117877 2.346648 -0.221440 0.257940 -0.113680 -4.090893 1.092527 -8.786396 12.467880 8.112533 35.093174 -7.988952 14.857401 5.062318 1.885146 -5.745443 -14.946095 -12.743272 0.391791 48.121476 2.440980 -6.199780 -14.718080 -9.924242 -7.753079 5.838526 -34.897594 10.481899 -9.375671 -14.857867 -26.233173 0.868225 -3.515921 2.520029 0.751420 -0.141560 -0.012780 -0.049760 6.056553 20.879362 10.745702 40.795712 9.132468 -15.055441 22.297949 62.139253 7.016566 1.923115 -1.129688 -0.441850 0.532010 0.417240 -0.163660 
1.187400 19.094870 -0.517380 3.135394 -6.470618 -15.012406 -15.207089 11.035273 5.697466 -15.942530 -10.679393 -48.748103 0.162969 18.174621 74.044241 1.567806 14.010413 -0.106409 -0.229330 -0.456930 -0.179150 18.340400 -10.910391 2.214859 -10.452868 3.948057 -0.870880 12.214417 -9.477732 26.774725 -0.575133 -5.791283 2.463490 -0.223900 0.295010 -0.100120 -3.639895 0.848594 -8.881728 7.155155 11.236569 34.268668 -5.128038 16.220938 6.534140 1.376260 -3.885649 -14.901680 -9.370951 -2.204553 47.674984 2.881760 -7.774260 -13.707190 -9.813092 -9.935631 6.064129 -33.940456 7.326793 -8.482051 -15.926587 -26.943050 1.206170 -3.579425 2.522578 0.734810 -0.096700 -0.051850 -0.072610 7.171598 22.174640 11.144012 40.129588 9.043465 -15.252042 26.966270 63.789548 9.275945 1.891782 -1.177500 -0.464190 0.529750 0.463370 -0.171920 
1.227660 19.077900 -0.579000 5.731781 -3.533490 -14.364723 -15.419602 10.574061 6.274299 -24.866372 -14.822008 -52.272798 8.919583 12.103148 79.724862 1.581396 13.942245 -0.071546 -0.216380 -0.430940 -0.177260 18.279420 -10.652913 1.941431 -10.768912 3.211530 -0.553125 10.815839 -8.706605 24.512788 -0.491238 -5.456511 2.572406 -0.194380 0.297650 -0.105030 -3.291232 0.810175 -8.925892 2.235639 14.044110 34.132567 -3.255454 17.382591 7.469415 0.923604 -2.308605 -14.666447 -6.098857 -4.332100 46.538590 3.661090 -8.799880 -13.950340 -9.643493 -11.260192 5.984581 -33.996388 4.773761 -8.238244 -15.045387 -28.578109 1.346086 -3.583332 2.546985 0.716240 -0.086030 -0.063620 -0.071880 7.976414 23.135798 11.394038 40.546725 10.184502 -15.367625 32.306784 66.169995 11.981616 1.882640 -1.254410 -0.468010 0.529890 0.458510 -0.172400 
1.303860 19.052960 -0.654100 6.405436 3.654716 -13.489370 -15.687841 9.870058 7.359005 -36.219217 -20.076257 -49.818015 20.069066 1.166108 79.599596 1.447908 13.330617 0.117469 -0.227980 -0.459630 -0.163890 18.267660 -10.079496 1.598104 -8.678120 1.560782 0.398982 8.223287 -7.733495 21.876638 -0.432413 -4.946486 2.758306 -0.184090 0.313670 -0.114280 -2.942660 0.304129 -9.252421 -0.318427 13.705456 35.431222 -1.923487 15.860897 7.991947 0.903498 -1.090575 -14.681640 -4.254382 -6.248528 46.669825 4.431210 -10.268260 -15.977920 -11.044446 -13.772187 6.411064 -32.973118 3.429362 -7.962121 -15.257469 -29.384195 1.406504 -3.597677 2.463817 0.774880 -0.091320 -0.057630 -0.087450 9.409884 24.515710 11.674771 38.695793 10.257816 -14.968432 44.504648 68.592932 19.306749 1.914852 -1.232438 -0.520490 0.589150 0.488630 -0.196160 
1.361640 19.008370 -0.717760 8.078042 8.876063 -12.517332 -15.887004 9.190168 8.235671 -43.467660 -24.600940 -49.542520 24.070338 -2.887495 81.655177 1.653065 13.824301 0.018972 -0.210840 -0.424410 -0.186270 18.274630 -9.514376 1.375196 -9.183274 0.522872 2.189656 7.796876 -7.130138 16.786226 -0.414857 -4.620621 2.889217 -0.169950 0.323820 -0.131160 -2.650477 -0.117137 -9.580835 -3.279813 14.248952 36.869919 -0.769036 15.037488 8.479478 0.524238 -0.891009 -15.110013 -4.242266 -6.822710 47.049578 7.434950 -11.882870 -16.997700 -11.708960 -16.065410 6.901326 -32.151465 2.378761 -7.921118 -15.331283 -30.220159 1.508221 -3.554799 2.469291 0.774540 -0.112990 -0.051890 -0.063780 10.981984 26.645483 12.378290 34.989351 10.423578 -13.995884 59.611583 70.652344 28.837284 2.014533 -1.223698 -0.512300 0.608840 0.474530 -0.169650 
1.436300 18.906970 -0.769120 9.200941 10.664896 -11.383422 -15.974666 8.760952 8.655292 -47.316082 -26.939762 -49.745815 28.498339 -6.894521 81.783109 1.781986 14.312744 -0.105964 -0.243070 -0.476860 -0.225790 18.299329 -9.145751 1.364388 -10.182582 0.017082 3.349794 8.513751 -6.735341 11.534101 -0.399999 -4.494685 2.929709 -0.189950 0.341120 -0.128370 -2.529252 -0.254675 -9.813714 -4.519490 15.002816 37.815856 -0.560692 15.187212 8.333417 0.376144 -1.173062 -15.555823 -5.021193 -7.295991 46.815344 9.040060 -13.533070 -16.927090 -12.459057 -17.246177 7.049064 -31.529202 2.229826 -8.039783 -16.118288 -31.112571 1.766752 -3.545467 2.495336 0.777410 -0.116800 -0.075240 -0.071290 12.184087 28.106162 13.144750 32.073347 10.123271 -12.404939 82.519568 71.942058 42.986964 2.506842 -0.779232 -0.524360 0.597780 0.505240 -0.163420 
